<mxfile host="app.diagrams.net" modified="2024-07-03T14:07:27.466Z" agent="Mozilla/5.0 (Windows NT 10.0; Win64; x64) AppleWebKit/537.36 (KHTML, like Gecko) Chrome/126.0.0.0 Safari/537.36" version="24.6.4" etag="o5GJj65Se5pbu5zyFG2g" type="github">
  <diagram name="Page-1" id="l1-IVYKU2dtkze-8FgoA">
    <mxGraphModel>
      <root>
        <mxCell id="0" />
        <mxCell id="1" parent="0" />
      </root>
    </mxGraphModel>
  </diagram>
</mxfile>
